<svg xmlns="http://www.w3.org/2000/svg" width="200mm" height="200mm" viewBox="0 0 566.93 566.93">
  <defs>
    <style>
      .cls-1 {
        fill: #fff;
      }
    </style>
  </defs>
  <g id="Capa_2" data-name="Capa 2">
    <g id="Layer_1" data-name="Layer 1">
      <rect class="cls-1" width="566.93" height="566.93"/>
      <g>
        <rect x="318.02" y="87.62" width="23.04" height="23.04"/>
        <rect x="225.86" y="179.78" width="23.04" height="23.04"/>
        <rect x="41.54" y="225.86" width="23.04" height="23.04"/>
        <polygon points="318.02 248.91 318.02 271.94 341.06 271.94 341.06 248.91 364.11 248.91 364.11 225.87 341.06 225.87 341.06 202.82 341.06 179.78 341.06 156.75 341.06 133.71 318.02 133.71 318.02 156.75 294.99 156.75 294.99 133.71 271.94 133.71 271.94 110.67 294.99 110.67 294.99 87.63 318.02 87.63 318.02 64.58 341.06 64.58 341.06 41.55 318.02 41.55 294.99 41.55 271.94 41.55 271.94 64.58 248.91 64.58 248.91 41.55 225.87 41.55 225.87 64.58 225.87 87.63 225.87 110.67 248.91 110.67 248.91 133.71 225.87 133.71 225.87 156.75 248.91 156.75 271.94 156.75 271.94 179.78 271.94 202.82 294.99 202.82 294.99 179.78 318.02 179.78 318.02 202.82 294.99 202.82 294.99 225.87 318.02 225.87 318.02 248.91"/>
        <rect x="410.18" y="225.86" width="23.04" height="23.04"/>
        <polygon points="479.31 225.87 456.26 225.87 456.26 248.91 433.23 248.91 433.23 271.94 456.26 271.94 456.26 294.99 456.26 318.02 479.31 318.02 479.31 294.99 502.35 294.99 525.38 294.99 525.38 271.94 502.35 271.94 479.31 271.94 479.31 248.91 502.35 248.91 525.38 248.91 525.38 225.87 502.35 225.87 479.31 225.87"/>
        <rect x="179.78" y="271.94" width="23.04" height="23.04"/>
        <polygon points="87.63 318.02 87.63 341.06 110.67 341.06 110.67 318.02 110.67 294.99 87.63 294.99 87.63 318.02"/>
        <polygon points="433.23 294.99 410.19 294.99 410.19 271.94 410.19 248.91 387.14 248.91 387.14 271.94 364.11 271.94 364.11 294.99 387.14 294.99 387.14 318.02 387.14 341.06 387.14 364.11 387.14 387.14 410.19 387.14 410.19 410.19 433.23 410.19 433.23 387.14 433.23 364.11 456.26 364.11 456.26 341.06 456.26 318.02 433.23 318.02 433.23 294.99"/>
        <rect x="133.7" y="318.02" width="23.04" height="23.04"/>
        <rect x="179.78" y="318.02" width="23.04" height="23.04"/>
        <rect x="502.34" y="318.02" width="23.04" height="23.04"/>
        <polygon points="341.06 364.11 364.11 364.11 364.11 341.06 341.06 341.06 318.02 341.06 318.02 364.11 318.02 387.14 341.06 387.14 341.06 364.11"/>
        <rect x="364.1" y="387.14" width="23.04" height="23.04"/>
        <polygon points="456.26 410.19 479.31 410.19 479.31 387.14 479.31 364.11 456.26 364.11 456.26 387.14 456.26 410.19"/>
        <rect x="502.34" y="387.14" width="23.04" height="23.04"/>
        <path d="M387.14,433.22v23h-23V410.18H318v23h23v23H295V410.18h23v-23H295V318h23V295H271.94v-23h23V225.86H110.66v23H64.58v23h-23v69.12h23V295h23v-23h23v23h46.08v-23h23v-23H248.9V318h-23V456.26h46.08v23h23v23H225.86v23h115.2v-23H318v-23h23v23h23v23h23v-23h23v23h46.08v-23h-23v-23h23V433.22h-23v23h-23V410.18h-23ZM248.9,387.14v-23h23v46.08h-23Z"/>
        <rect x="479.3" y="410.18" width="23.04" height="23.04"/>
        <polygon points="479.31 502.35 502.35 502.35 525.38 502.35 525.38 479.31 525.38 456.26 502.35 456.26 479.31 456.26 479.31 479.31 456.26 479.31 456.26 502.35 479.31 502.35"/>
        <path d="M202.82,41.54H41.54V202.82H202.82ZM178.63,178.63H65.74V65.74H178.63Z"/>
        <path d="M501.19,41.54H364.1V202.82H525.38V41.54Zm0,137.09H388.3V65.74H501.19Z"/>
        <path d="M41.54,364.1V525.38H202.82V364.1H41.54ZM178.63,501.19H65.74V388.3H178.63Z"/>
        <rect x="87.62" y="87.62" width="69.12" height="69.12"/>
        <rect x="410.18" y="87.62" width="69.12" height="69.12"/>
        <rect x="87.62" y="410.18" width="69.12" height="69.12"/>
      </g>
    </g>
  </g>
</svg>
