<svg xmlns="http://www.w3.org/2000/svg" width="170.69mm" height="170.69mm" viewBox="0 0 483.84 483.84">
  <g id="Capa_2" data-name="Capa 2">
    <g id="Layer_1" data-name="Layer 1">
      <g>
        <rect x="276.48" y="46.08" width="23.04" height="23.04"/>
        <rect x="184.32" y="138.24" width="23.04" height="23.04"/>
        <rect y="184.32" width="23.04" height="23.04"/>
        <polygon points="276.48 207.36 276.48 230.4 299.52 230.4 299.52 207.36 322.56 207.36 322.56 184.32 299.52 184.32 299.52 161.28 299.52 138.24 299.52 115.2 299.52 92.16 276.48 92.16 276.48 115.2 253.44 115.2 253.44 92.16 230.4 92.16 230.4 69.12 253.44 69.12 253.44 46.08 276.48 46.08 276.48 23.04 299.52 23.04 299.52 0 276.48 0 253.44 0 230.4 0 230.4 23.04 207.36 23.04 207.36 0 184.32 0 184.32 23.04 184.32 46.08 184.32 69.12 207.36 69.12 207.36 92.16 184.32 92.16 184.32 115.2 207.36 115.2 230.4 115.2 230.4 138.24 230.4 161.28 253.44 161.28 253.44 138.24 276.48 138.24 276.48 161.28 253.44 161.28 253.44 184.32 276.48 184.32 276.48 207.36"/>
        <rect x="368.64" y="184.32" width="23.04" height="23.04"/>
        <polygon points="437.76 184.32 414.72 184.32 414.72 207.36 391.68 207.36 391.68 230.4 414.72 230.4 414.72 253.44 414.72 276.48 437.76 276.48 437.76 253.44 460.8 253.44 483.84 253.44 483.84 230.4 460.8 230.4 437.76 230.4 437.76 207.36 460.8 207.36 483.84 207.36 483.84 184.32 460.8 184.32 437.76 184.32"/>
        <rect x="138.24" y="230.4" width="23.04" height="23.04"/>
        <polygon points="46.08 276.48 46.08 299.52 69.12 299.52 69.12 276.48 69.12 253.44 46.08 253.44 46.08 276.48"/>
        <polygon points="391.68 253.44 368.64 253.44 368.64 230.4 368.64 207.36 345.6 207.36 345.6 230.4 322.56 230.4 322.56 253.44 345.6 253.44 345.6 276.48 345.6 299.52 345.6 322.56 345.6 345.6 368.64 345.6 368.64 368.64 391.68 368.64 391.68 345.6 391.68 322.56 414.72 322.56 414.72 299.52 414.72 276.48 391.68 276.48 391.68 253.44"/>
        <rect x="92.16" y="276.48" width="23.04" height="23.04"/>
        <rect x="138.24" y="276.48" width="23.04" height="23.04"/>
        <rect x="460.8" y="276.48" width="23.04" height="23.04"/>
        <polygon points="299.52 322.56 322.56 322.56 322.56 299.52 299.52 299.52 276.48 299.52 276.48 322.56 276.48 345.6 299.52 345.6 299.52 322.56"/>
        <rect x="322.56" y="345.6" width="23.04" height="23.04"/>
        <polygon points="414.72 368.64 437.76 368.64 437.76 345.6 437.76 322.56 414.72 322.56 414.72 345.6 414.72 368.64"/>
        <rect x="460.8" y="345.6" width="23.04" height="23.04"/>
        <path d="M345.6,391.68v23h-23V368.64H276.48v23h23v23H253.44V368.64h23v-23h-23V276.48h23v-23H230.4v-23h23V184.32H69.12v23H23v23H0v69.12H23V253.44h23v-23h23v23H115.2v-23h23v-23h69.12v69.12h-23V414.72H230.4v23h23v23H184.32v23h115.2v-23h-23v-23h23v23h23v23h23v-23h23v23h46.08v-23h-23v-23h23V391.68h-23v23h-23V368.64h-23ZM207.36,345.6v-23h23v46.08h-23Z"/>
        <rect x="437.76" y="368.64" width="23.04" height="23.04"/>
        <polygon points="437.76 460.8 460.8 460.8 483.84 460.8 483.84 437.76 483.84 414.72 460.8 414.72 437.76 414.72 437.76 437.76 414.72 437.76 414.72 460.8 437.76 460.8"/>
        <path d="M161.28,0H0V161.28H161.28ZM137.09,137.09H24.19V24.19h112.9Z"/>
        <path d="M459.65,0H322.56V161.28H483.84V0Zm0,137.09H346.75V24.19h112.9Z"/>
        <path d="M0,322.56V483.84H161.28V322.56H0ZM137.09,459.65H24.19V346.75h112.9Z"/>
        <rect x="46.08" y="46.08" width="69.12" height="69.12"/>
        <rect x="368.64" y="46.08" width="69.12" height="69.12"/>
        <rect x="46.08" y="368.64" width="69.12" height="69.12"/>
      </g>
    </g>
  </g>
</svg>
